# xmcd
#
# Track frame offsets:
#	150
#	12355
#	23205
#	40510
#	58150
#	72240
#	83882
#	94510
#	109417
#	125950
#	139747
#	169015
#
# Disc length: 2515 seconds
#
# Revision: 3
# Processed by: cddbd v1.5.2PL0 Copyright (c) Steve Scherf et al.
# Submitted via: EasyCDDAExtractor 15.2.5.1
#
DISCID=a209d10c
DTITLE=Danni Leigh - 29 Nights
DYEAR=1998
DGENRE=Country
TTITLE0=If The Jukebox Took Teardrops
TTITLE1=Beatin' My Head Against The Wall
TTITLE2=29 Nights
TTITLE3=How Does It Feel To You
TTITLE4=Teardrops, Teardrops
TTITLE5=Ol' Lonesome
TTITLE6=Mixed Up Mess Of A Heart
TTITLE7=Touch Me
TTITLE8=I Feel A Heartache
TTITLE9=Chain Me
TTITLE10=Weren't You The One
TTITLE11=Bonus
EXTD=YEAR: 1998
EXTT0=
EXTT1=
EXTT2=
EXTT3=
EXTT4=
EXTT5=
EXTT6=
EXTT7=
EXTT8=
EXTT9=
EXTT10=
EXTT11=
PLAYORDER=
